<svg xmlns="http://www.w3.org/2000/svg" version="1.1" xmlns:xlink="http://www.w3.org/1999/xlink" width="200" height="200"><svg xmlns="http://www.w3.org/2000/svg" version="1.1" xmlns:xlink="http://www.w3.org/1999/xlink" width="200" height="200"><svg xmlns="http://www.w3.org/2000/svg" version="1.1" xmlns:xlink="http://www.w3.org/1999/xlink" viewBox="0 0 200 200"><rect width="200" height="200" fill="url('#gradient')"></rect><defs><linearGradient id="gradient" gradientTransform="rotate(45 0.5 0.5)"><stop offset="0%" stop-color="#353664"></stop><stop offset="100%" stop-color="#ffffff"></stop></linearGradient></defs><g><g fill="#000000" transform="matrix(2.6425806451612903,0,0,2.6425806451612903,9.069618017596582,118.52620866529404)" stroke="#000000" stroke-width="0.2"><path d="M6.74-4.46L6.74-14.22L10.16-14.22L10.16-4.46Q10.16-3.11 9.53-2.04Q8.90-0.98 7.77-0.39Q6.64 0.20 5.25 0.20L5.25 0.20Q2.93 0.20 1.64-0.98Q0.35-2.15 0.35-4.30L0.35-4.30L3.79-4.30Q3.79-3.32 4.13-2.88Q4.46-2.44 5.25-2.44L5.25-2.44Q5.97-2.44 6.35-2.97Q6.74-3.51 6.74-4.46L6.74-4.46ZM21.01 0L20.18-2.66L15.48-2.66L14.66 0L11.00 0L16.21-14.22L19.43-14.22L24.69 0L21.01 0ZM17.82-10.23L16.30-5.30L19.36-5.30L17.82-10.23ZM37.60-14.22L37.60 0L34.19 0L29.15-8.85L29.15 0L25.72 0L25.72-14.22L29.15-14.22L34.18-5.37L34.18-14.22L37.60-14.22ZM39.77-14.22L44.27-14.22L47.44-4.33L50.61-14.22L55.12-14.22L55.12 0L51.68 0L51.68-3.32L52.01-10.12L48.57 0L46.31 0L42.86-10.13L43.19-3.32L43.19 0L39.77 0L39.77-14.22ZM61.97 0L57.29 0L57.29-14.22L61.88-14.22Q63.76-14.22 65.26-13.36Q66.77-12.51 67.61-10.95Q68.46-9.39 68.47-7.46L68.47-7.46L68.47-6.81Q68.47-4.85 67.64-3.31Q66.82-1.76 65.32-0.88Q63.82-0.01 61.97 0L61.97 0ZM61.88-11.57L60.72-11.57L60.72-2.64L61.91-2.64Q63.39-2.64 64.18-3.69Q64.97-4.74 64.97-6.81L64.97-6.81L64.97-7.42Q64.97-9.48 64.18-10.53Q63.39-11.57 61.88-11.57L61.88-11.57Z"></path></g></g></svg></svg><style>@media (prefers-color-scheme: light) { :root { filter: none; } }
@media (prefers-color-scheme: dark) { :root { filter: invert(100%); } }
</style></svg>